<?xml version="1.0" standalone="no"?>
<!DOCTYPE svg PUBLIC "-//W3C//DTD SVG 1.1//EN" "http://www.w3.org/Graphics/SVG/1.1/DTD/svg11.dtd"><svg t="1656048977448"
  class="icon" viewBox="0 0 1024 1024" version="1.1" xmlns="http://www.w3.org/2000/svg" p-id="975"
  xmlns:xlink="http://www.w3.org/1999/xlink" width="200" height="200">
  <path d="M228.53 506.25a327.44 378.13 0 1 0 654.88 0 327.44 378.13 0 1 0-654.88 0Z" fill="#FFF7D2" p-id="976">
  </path>
  <path
    d="M883.41 500.2c0-156.19-77.77-266.31-206.7-326.31-24.3-8.89-57.07-31.14-80.29-31.14-10.25 0-73.38-0.86-83.42 0 135.05 57.18 190.33 208.67 190.33 369.47 0 196.78-170.68 319.43-354.22 341.55 14.48 1.82 150.09 30.6 165.04 30.6 203.61 0.01 369.26-172.34 369.26-384.17z"
    fill="#F88400" opacity=".38" p-id="977"></path>
  <path
    d="M512.5 897.7c-211.83 0-384.18-172.34-384.18-384.18S300.67 129.34 512.5 129.34s384.18 172.35 384.18 384.18S724.34 897.7 512.5 897.7z m0-740.63c-196.55 0-356.43 159.9-356.43 356.43s159.9 356.45 356.43 356.45 356.45-159.9 356.45-356.45S709.04 157.07 512.5 157.07z"
    fill="#333333" p-id="978"></path>
  <path
    d="M786.85 526.99c-30.48-0.15-60.96 0-91.44 0-29.55 0-59.14-0.19-88.65 0.1-8.57 0.08-17.98-1.04-26.07 2.5-11.53 5.08-11.16 17.44-4.15 26.71 5.84 7.66 13.02 14.33 19.85 21.17 40.47 40.53 80.78 81.16 121.51 121.4 17.54 17.34 37.43 19.34 53.59 7.26 5.14-3.27 9.54-7.59 12.91-12.67a315.64 315.64 0 0 0 47.22-109.92c7.84-36.1-8.09-56.4-44.77-56.55z m-224.99 55.63c-6.68-6.66-14.37-13.4-24.31-8.87-0.94 0.42-1.83 0.95-2.66 1.56-3.53 1.97-6.1 6.02-7.39 12.07a79.829 79.829 0 0 0-1.51 16.47c-0.15 30.48-0.07 60.96-0.06 91.45 0 31.87-0.33 63.74 0.1 95.61 0.44 32.02 21.02 48.57 51.6 42.44a317.364 317.364 0 0 0 107.17-43.17 86.8 86.8 0 0 0 7.44-5.19l0.6-0.38c23.79-15.82 27.14-43.32 6.96-63.8-45.66-46.4-91.87-92.21-137.94-138.19z m-323.71-82.58c30.48 0.15 60.96 0 91.43 0 29.56 0 59.14 0.21 88.65-0.1 9.76-0.1 19.49 0.95 28.24-4.44 10.09-6.23 8.53-16.1 1.92-24.78-5.83-7.66-13.01-14.33-19.85-21.18-40.47-40.53-80.78-81.16-121.51-121.4-17.54-17.34-37.44-19.35-53.59-7.26a43.086 43.086 0 0 0-12.91 12.67 315.677 315.677 0 0 0-47.16 109.92c-7.85 36.14 8.08 56.41 44.78 56.57z m224.99-55.64c5.07 5.06 11 10.68 18.68 10.25 8.42-0.47 14.02-7.2 15.68-14.99a81.388 81.388 0 0 0 1.5-16.48c0.15-30.48 0.06-60.96 0.06-91.45 0-31.87 0.34-63.74-0.09-95.6-0.44-32.03-21.03-48.57-51.6-42.44a317.098 317.098 0 0 0-107.17 43.18 89.27 89.27 0 0 0-7.45 5.19l-0.6 0.38c-23.79 15.81-27.14 43.31-6.96 63.8 45.67 46.38 91.89 92.19 137.95 138.16z m68.48 4.79c6.59 7.61 15.22 6.63 23.64 0.22 7.66-5.83 14.33-13.01 21.17-19.85 40.53-40.47 81.16-80.78 121.4-121.51 17.34-17.54 19.34-37.44 7.26-53.59a43.439 43.439 0 0 0-12.67-12.91 315.565 315.565 0 0 0-109.88-47.16c-36.13-7.84-56.42 8.07-56.57 44.78-0.15 30.48 0 60.96 0 91.43 0 29.56-0.19 59.14 0.1 88.65 0.1 9.59-1.86 19.29 3.92 27.78 0.5 0.76 1.05 1.48 1.63 2.16z m49.98 14.97c-6.66 6.68-13.4 14.38-8.87 24.31 0.42 0.94 0.95 1.83 1.56 2.66 1.97 3.51 6.02 6.09 12.07 7.38a81.225 81.225 0 0 0 16.47 1.5c30.48 0.15 60.96 0.06 91.45 0.06 31.87 0 63.74 0.34 95.61-0.09 32.02-0.44 48.57-21.03 42.44-51.6a317.333 317.333 0 0 0-43.17-107.18 89.27 89.27 0 0 0-5.19-7.45c-0.12-0.2-0.25-0.4-0.38-0.6-15.82-23.79-43.32-27.14-63.8-6.96-46.4 45.69-92.21 91.91-138.19 137.97z m-87.65 113.21c-6.23-6.99-16.54-5.61-24.23 0.22-7.69 5.83-14.33 13.02-21.18 19.85-40.53 40.47-81.16 80.78-121.4 121.51-17.34 17.54-19.35 37.43-7.26 53.59 3.26 5.15 7.58 9.55 12.67 12.91a315.74 315.74 0 0 0 109.89 47.17c36.14 7.84 56.43-8.07 56.57-44.77 0.15-30.48 0-60.96 0-91.44 0-29.55 0.21-59.14-0.1-88.65-0.1-8.68 1.48-18.68-2.55-26.73-0.64-1.32-1.45-2.55-2.41-3.66z m-50.57-14.49c6.67-6.68 13.4-14.37 8.89-24.31-0.43-0.94-0.96-1.83-1.57-2.66-1.97-3.52-6.02-6.1-12.07-7.39a79.988 79.988 0 0 0-16.48-1.51c-30.48-0.15-60.96-0.07-91.45-0.06-31.87 0-63.74-0.33-95.6 0.1-32.03 0.45-48.57 21.03-42.47 51.58a317.178 317.178 0 0 0 43.21 107.19 86.8 86.8 0 0 0 5.19 7.44l0.38 0.6c15.81 23.79 43.31 27.14 63.8 6.96 46.39-45.66 92.2-91.87 138.17-137.94z"
    fill="#F88400" p-id="979"></path>
  <path d="M451.72 231.31s-10.58-0.57-42.19 13.19c-36.74 16-46.6 25.83-46.6 25.83" p-id="980"></path>
  <path
    d="M365.07 272.47l-0.29-0.29c-7.25-7.27-5.77-19.44 3.05-24.69 7.91-4.71 19.27-10.67 35.31-17.66 11.88-5.17 21.19-8.54 28.42-10.71 10.31-3.1 20.6 4.9 20.25 15.66-0.01 0.16-0.01 0.31-0.02 0.47-0.22 6.79-4.76 12.65-11.27 14.61-5.68 1.71-13.72 4.56-24.62 9.31-15.08 6.56-25.18 11.92-31.66 15.76-6.19 3.67-14.08 2.64-19.17-2.46z"
    fill="#FFFFFF" p-id="981"></path>
</svg>